<svg xmlns="http://www.w3.org/2000/svg" width="250" height="250" viewBox="0 0 250 250">
  <path fill="white" d="M0 0h250v250H0z"/>
  <path fill="black" d="M100 20h10v10h-10zM110 20h10v10h-10zM130 20h10v10h-10zM110 30h10v10h-10zM130 30h10v10h-10zM140 30h10v10h-10zM110 40h10v10h-10zM120 40h10v10h-10zM130 40h10v10h-10zM140 40h10v10h-10zM100 50h10v10h-10zM110 50h10v10h-10zM130 50h10v10h-10zM140 50h10v10h-10zM100 60h10v10h-10zM140 60h10v10h-10zM100 70h10v10h-10zM120 70h10v10h-10zM130 70h10v10h-10zM100 80h10v10h-10zM120 80h10v10h-10zM140 80h10v10h-10zM100 90h10v10h-10zM110 90h10v10h-10zM130 90h10v10h-10zM140 90h10v10h-10zM20 100h10v10H20zM60 100h10v10H60zM80 100h10v10H80zM90 100h10v10H90zM100 100h10v10h-10zM120 100h10v10h-10zM130 100h10v10h-10zM150 100h10v10h-10zM160 100h10v10h-10zM170 100h10v10h-10zM180 100h10v10h-10zM190 100h10v10h-10zM220 100h10v10h-10zM20 110h10v10H20zM40 110h10v10H40zM50 110h10v10H50zM60 110h10v10H60zM90 110h10v10H90zM140 110h10v10h-10zM160 110h10v10h-10zM170 110h10v10h-10zM180 110h10v10h-10zM190 110h10v10h-10zM200 110h10v10h-10zM210 110h10v10h-10zM220 110h10v10h-10zM20 120h10v10H20zM40 120h10v10H40zM60 120h10v10H60zM80 120h10v10H80zM90 120h10v10H90zM100 120h10v10h-10zM110 120h10v10h-10zM130 120h10v10h-10zM170 120h10v10h-10zM180 120h10v10h-10zM190 120h10v10h-10zM200 120h10v10h-10zM210 120h10v10h-10zM30 130h10v10H30zM40 130h10v10H40zM50 130h10v10H50zM60 130h10v10H60zM70 130h10v10H70zM90 130h10v10H90zM110 130h10v10h-10zM120 130h10v10h-10zM140 130h10v10h-10zM170 130h10v10h-10zM210 130h10v10h-10zM220 130h10v10h-10zM30 140h10v10H30zM60 140h10v10H60zM70 140h10v10H70zM80 140h10v10H80zM90 140h10v10H90zM100 140h10v10h-10zM120 140h10v10h-10zM140 140h10v10h-10zM170 140h10v10h-10zM200 140h10v10h-10zM210 140h10v10h-10zM220 140h10v10h-10zM100 150h10v10h-10zM120 150h10v10h-10zM150 150h10v10h-10zM160 150h10v10h-10zM190 150h10v10h-10zM210 150h10v10h-10zM100 160h10v10h-10zM110 160h10v10h-10zM130 160h10v10h-10zM180 160h10v10h-10zM190 160h10v10h-10zM200 160h10v10h-10zM120 170h10v10h-10zM140 170h10v10h-10zM170 170h10v10h-10zM180 170h10v10h-10zM210 170h10v10h-10zM100 180h10v10h-10zM140 180h10v10h-10zM200 180h10v10h-10zM130 190h10v10h-10zM150 190h10v10h-10zM160 190h10v10h-10zM170 190h10v10h-10zM180 190h10v10h-10zM200 190h10v10h-10zM210 190h10v10h-10zM220 190h10v10h-10zM110 200h10v10h-10zM130 200h10v10h-10zM170 200h10v10h-10zM180 200h10v10h-10zM190 200h10v10h-10zM200 200h10v10h-10zM130 210h10v10h-10zM170 210h10v10h-10zM180 210h10v10h-10zM190 210h10v10h-10zM100 220h10v10h-10zM140 220h10v10h-10zM190 220h10v10h-10zM220 220h10v10h-10z"/>
  <path fill="white" d="M30.5 30.5h49v49h-49z"/>
  <path fill="black" d="M79.5 20H20v70h70V20H79.5zm0 59.5h-49v-49h49v49z"/>
  <path fill="white" d="M170.5 30.5h49v49h-49z"/>
  <path fill="black" d="M219.5 20H160v70h70V20h-10.5zm0 59.5h-49v-49h49v49z"/>
  <path fill="white" d="M30.5 170.5h49v49h-49z"/>
  <path fill="black" d="M79.5 160H20v70h70v-70H79.5zm0 59.5h-49v-49h49v49z"/>
  <g>
    <path fill="black" d="M40 40h30v30H40z"/>
  </g>
  <g>
    <path fill="black" d="M180 40h30v30h-30z"/>
  </g>
  <g>
    <path fill="black" d="M40 180h30v30H40z"/>
  </g>
</svg>
