<svg width="343" height="149" viewBox="0 0 343 149" fill="none" xmlns="http://www.w3.org/2000/svg">
<rect width="343" height="149" rx="4" fill="white"/>
<path d="M15.5841 13H12V136H15.5841V13Z" fill="black"/>
<path d="M19.1682 13H17.376V136H19.1682V13Z" fill="black"/>
<path d="M24.5452 13H22.7529V136H24.5452V13Z" fill="black"/>
<path d="M33.5054 13H31.7131V136H33.5054V13Z" fill="black"/>
<path d="M38.8826 13H37.0903V136H38.8826V13Z" fill="black"/>
<path d="M46.0504 13H42.4663V136H46.0504V13Z" fill="black"/>
<path d="M53.219 13H51.4268V136H53.219V13Z" fill="black"/>
<path d="M62.1794 13H58.5952V136H62.1794V13Z" fill="black"/>
<path d="M69.3486 13H67.5564V136H69.3486V13Z" fill="black"/>
<path d="M72.9331 13H71.1409V136H72.9331V13Z" fill="black"/>
<path d="M80.1015 13H74.7251V136H80.1015V13Z" fill="black"/>
<path d="M89.0614 13H85.4773V136H89.0614V13Z" fill="black"/>
<path d="M92.6462 13H90.854V136H92.6462V13Z" fill="black"/>
<path d="M99.8149 13H98.0227V136H99.8149V13Z" fill="black"/>
<path d="M105.191 13H101.607V136H105.191V13Z" fill="black"/>
<path d="M112.359 13H110.567V136H112.359V13Z" fill="black"/>
<path d="M121.32 13H115.944V136H121.32V13Z" fill="black"/>
<path d="M126.696 13H123.112V136H126.696V13Z" fill="black"/>
<path d="M132.073 13H130.281V136H132.073V13Z" fill="black"/>
<path d="M141.034 13H135.657V136H141.034V13Z" fill="black"/>
<path d="M146.41 13H142.826V136H146.41V13Z" fill="black"/>
<path d="M151.787 13H149.995V136H151.787V13Z" fill="black"/>
<path d="M160.747 13H157.163V136H160.747V13Z" fill="black"/>
<path d="M167.916 13H166.124V136H167.916V13Z" fill="black"/>
<path d="M173.292 13H169.708V136H173.292V13Z" fill="black"/>
<path d="M178.669 13H176.876V136H178.669V13Z" fill="black"/>
<path d="M187.629 13H182.252V136H187.629V13Z" fill="black"/>
<path d="M191.213 13H189.421V136H191.213V13Z" fill="black"/>
<path d="M198.382 13H193.005V136H198.382V13Z" fill="black"/>
<path d="M207.343 13H200.174V136H207.343V13Z" fill="black"/>
<path d="M212.719 13H209.135V136H212.719V13Z" fill="black"/>
<path d="M218.095 13H214.51V136H218.095V13Z" fill="black"/>
<path d="M225.263 13H221.679V136H225.263V13Z" fill="black"/>
<path d="M230.64 13H228.848V136H230.64V13Z" fill="black"/>
<path d="M236.017 13H234.225V136H236.017V13Z" fill="black"/>
<path d="M243.185 13H239.601V136H243.185V13Z" fill="black"/>
<path d="M250.353 13H248.561V136H250.353V13Z" fill="black"/>
<path d="M259.315 13H252.146V136H259.315V13Z" fill="black"/>
<path d="M266.483 13H261.107V136H266.483V13Z" fill="black"/>
<path d="M270.067 13H268.275V136H270.067V13Z" fill="black"/>
<path d="M275.444 13H273.651V136H275.444V13Z" fill="black"/>
<path d="M282.612 13H279.028V136H282.612V13Z" fill="black"/>
<path d="M293.365 13H287.989V136H293.365V13Z" fill="black"/>
<path d="M300.533 13H296.949V136H300.533V13Z" fill="black"/>
<path d="M305.91 13H304.118V136H305.91V13Z" fill="black"/>
<path d="M311.286 13H307.702V136H311.286V13Z" fill="black"/>
<path d="M322.039 13H316.663V136H322.039V13Z" fill="black"/>
<path d="M325.623 13H323.831V136H325.623V13Z" fill="black"/>
<path d="M331 13H327.416V136H331V13Z" fill="black"/>
</svg>
